<svg width="86" height="86" viewBox="0 0 86 86" fill="none" xmlns="http://www.w3.org/2000/svg">
<g clip-path="url(#clip0_1_26)">
<mask id="mask0_1_26" style="mask-type:alpha" maskUnits="userSpaceOnUse" x="0" y="0" width="86" height="86">
<path d="M0 30.0246C0 14.8691 0 9.41638 4.70819 4.70819C9.41638 0 14.8691 0 32.1495 0H53.8505C71.1308 0 76.5836 0 81.2918 4.70819C86 9.41638 86 14.8691 86 32.1495V53.8505C86 71.1308 86 76.5836 81.2918 81.2918C76.5836 86 71.1308 86 53.8505 86H32.1495C14.8691 86 9.41638 86 4.70819 81.2918C0 76.5836 0 71.1308 0 53.8505V30.0246Z" fill="white"/>
</mask>
<g mask="url(#mask0_1_26)">
<rect width="86" height="86" fill="url(#paint0_radial_1_26)"/>
</g>
<g clip-path="url(#clip1_1_26)">
<path fill-rule="evenodd" clip-rule="evenodd" d="M13 17C13 14.7909 14.7909 13 17 13H69C71.2091 13 73 14.7909 73 17V69C73 71.2091 71.2091 73 69 73H17C14.7909 73 13 71.2091 13 69V17ZM38.3125 24.1875C38.8648 24.1875 39.3125 24.6352 39.3125 25.1875V33.5625H45.75C46.8546 33.5625 47.75 34.4579 47.75 35.5625V37.3125H48.625C49.1773 37.3125 49.625 37.7602 49.625 38.3125C49.625 38.8648 49.1773 39.3125 48.625 39.3125H47.75C46.6454 39.3125 45.75 38.4171 45.75 37.3125V35.5625H39.3125C38.2079 35.5625 37.3125 34.6671 37.3125 33.5625V25.1875C37.3125 24.6352 37.7602 24.1875 38.3125 24.1875ZM30.8125 21.5625H21.5625V30.8125C21.5625 31.9171 20.6671 32.8125 19.5625 32.8125C18.4579 32.8125 17.5625 31.9171 17.5625 30.8125V20.5625C17.5625 18.9056 18.9056 17.5625 20.5625 17.5625H30.8125C31.9171 17.5625 32.8125 18.4579 32.8125 19.5625C32.8125 20.6671 31.9171 21.5625 30.8125 21.5625ZM55.1875 64.4375C54.0829 64.4375 53.1875 65.3329 53.1875 66.4375C53.1875 67.5421 54.0829 68.4375 55.1875 68.4375H65.4375C67.0944 68.4375 68.4375 67.0944 68.4375 65.4375V55.1875C68.4375 54.0829 67.5421 53.1875 66.4375 53.1875C65.3329 53.1875 64.4375 54.0829 64.4375 55.1875V64.4375H55.1875ZM64.4375 30.8125V21.5625L55.1875 21.5625C54.0829 21.5625 53.1875 20.6671 53.1875 19.5625C53.1875 18.4579 54.0829 17.5625 55.1875 17.5625L65.4375 17.5625C67.0944 17.5625 68.4375 18.9056 68.4375 20.5625V30.8125C68.4375 31.9171 67.5421 32.8125 66.4375 32.8125C65.3329 32.8125 64.4375 31.9171 64.4375 30.8125ZM21.5625 64.4375L21.5625 55.1875C21.5625 54.0829 20.6671 53.1875 19.5625 53.1875C18.4579 53.1875 17.5625 54.0829 17.5625 55.1875L17.5625 65.4375C17.5625 67.0944 18.9056 68.4375 20.5625 68.4375H30.8125C31.9171 68.4375 32.8125 67.5421 32.8125 66.4375C32.8125 65.3329 31.9171 64.4375 30.8125 64.4375H21.5625ZM26.1875 24.1875C25.0829 24.1875 24.1875 25.0829 24.1875 26.1875V33.5625C24.1875 34.6671 25.0829 35.5625 26.1875 35.5625H33.5625C34.6671 35.5625 35.5625 34.6671 35.5625 33.5625V26.1875C35.5625 25.0829 34.6671 24.1875 33.5625 24.1875H26.1875ZM26.1875 26.1875H33.5625V33.5625H26.1875V26.1875ZM50.4375 26.1875C50.4375 25.0829 51.3329 24.1875 52.4375 24.1875H59.8125C60.9171 24.1875 61.8125 25.0829 61.8125 26.1875V33.5625C61.8125 34.6671 60.9171 35.5625 59.8125 35.5625H52.4375C51.3329 35.5625 50.4375 34.6671 50.4375 33.5625V26.1875ZM59.8125 26.1875H52.4375V33.5625H59.8125V26.1875ZM52.4375 50.4375C51.3329 50.4375 50.4375 51.3329 50.4375 52.4375V59.8125C50.4375 60.9171 51.3329 61.8125 52.4375 61.8125H59.8125C60.9171 61.8125 61.8125 60.9171 61.8125 59.8125V52.4375C61.8125 51.3329 60.9171 50.4375 59.8125 50.4375H52.4375ZM52.4375 52.4375H59.8125V59.8125H52.4375V52.4375ZM24.1875 52.4375C24.1875 51.3329 25.0829 50.4375 26.1875 50.4375H33.5625C34.6671 50.4375 35.5625 51.3329 35.5625 52.4375V59.8125C35.5625 60.9171 34.6671 61.8125 33.5625 61.8125H26.1875C25.0829 61.8125 24.1875 60.9171 24.1875 59.8125V52.4375ZM33.5625 52.4375H26.1875V59.8125H33.5625V52.4375ZM48.6875 25.1875C48.6875 24.6352 48.2398 24.1875 47.6875 24.1875C47.1352 24.1875 46.6875 24.6352 46.6875 25.1875V29.8125H42.0625C41.5102 29.8125 41.0625 30.2602 41.0625 30.8125C41.0625 31.3648 41.5102 31.8125 42.0625 31.8125H46.6875C47.7921 31.8125 48.6875 30.9171 48.6875 29.8125V25.1875ZM24.1875 38.3125C24.1875 37.7602 24.6352 37.3125 25.1875 37.3125H25.1922H25.1969H25.2018H25.2068H25.212H25.2172H25.2226H25.2281H25.2337H25.2394H25.2453H25.2512H25.2573H25.2635H25.2698H25.2763H25.2828H25.2895H25.2962H25.3031H25.3101H25.3172H25.3244H25.3318H25.3392H25.3468H25.3545H25.3622H25.3701H25.3781H25.3863H25.3945H25.4028H25.4113H25.4198H25.4285H25.4372H25.4461H25.4551H25.4642H25.4734H25.4827H25.4921H25.5016H25.5112H25.5209H25.5307H25.5406H25.5507H25.5608H25.571H25.5814H25.5918H25.6023H25.613H25.6237H25.6345H25.6455H25.6565H25.6676H25.6789H25.6902H25.7016H25.7132H25.7248H25.7365H25.7483H25.7602H25.7722H25.7843H25.7965H25.8088H25.8212H25.8337H25.8463H25.8589H25.8717H25.8846H25.8975H25.9105H25.9237H25.9369H25.9502H25.9636H25.9771H25.9906H26.0043H26.018H26.0319H26.0458H26.0598H26.0739H26.0881H26.1024H26.1167H26.1312H26.1457H26.1603H26.175H26.1898H26.2047H26.2196H26.2347H26.2498H26.265H26.2803H26.2956H26.3111H26.3266H26.3422H26.3578H26.3736H26.3894H26.4054H26.4214H26.4374H26.4536H26.4698H26.4861H26.5025H26.5189H26.5355H26.5521H26.5688H26.5855H26.6024H26.6193H26.6362H26.6533H26.6704H26.6876H26.7049H26.7222H26.7396H26.7571H26.7746H26.7923H26.8099H26.8277H26.8455H26.8634H26.8814H26.8994H26.9175H26.9357H26.9539H26.9722H26.9906H27.009H27.0275H27.0461H27.0647H27.0834H27.1021H27.1209H27.1398H27.1587H27.1777H27.1968H27.2159H27.2351H27.2544H27.2737H27.293H27.3124H27.3319H27.3515H27.3711H27.3907H27.4104H27.4302H27.45H27.4699H27.4899H27.5099H27.5299H27.55H27.5702H27.5904H27.6107H27.631H27.6514H27.6718H27.6923H27.7128H27.7334H27.754H27.7747H27.7954H27.8162H27.837H27.8579H27.8789H27.8998H27.9209H27.9419H27.9631H27.9842H28.0055H28.0267H28.048H28.0694H28.0908H28.1122H28.1337H28.1552H28.1768H28.1984H28.2201H28.2418H28.2635H28.2853H28.3072H28.329H28.3509H28.3729H28.3949H28.4169H28.439H28.4611H28.4832H28.5054H28.5276H28.5499H28.5722H28.5945H28.6169H28.6393H28.6617H28.6842H28.7067H28.7292H28.7518H28.7744H28.7971H28.8197H28.8424H28.8652H28.888H28.9108H28.9336H28.9564H28.9793H29.0023H29.0252H29.0482H29.0712H29.0942H29.1173H29.1404H29.1635H29.1866H29.2098H29.233H29.2562H29.2795H29.3027H29.326H29.3494H29.3727H29.3961H29.4195H29.4429H29.4663H29.4898H29.5132H29.5367H29.5602H29.5838H29.6073H29.6309H29.6545H29.6781H29.7018H29.7254H29.7491H29.7728H29.7965H29.8202H29.8439H29.8677H29.8914H29.9152H29.939H29.9628H29.9866H30.0105H30.0343H30.0582H30.0821H30.1059H30.1298H30.1538H30.1777H30.2016H30.2255H30.2495H30.2734H30.2974H30.3214H30.3454H30.3694H30.3934H30.4174H30.4414H30.4654H30.4894H30.5135H30.5375H30.5615H30.5856H30.6096H30.6337H30.6577H30.6818H30.7058H30.7299H30.754H30.778H30.8021H30.8262H30.8502H30.8743H30.8984H30.9224H30.9465H30.9706H30.9946H31.0187H31.0427H31.0668H31.0908H31.1149H31.1389H31.1629H31.187H31.211H31.235H31.259H31.283H31.307H31.331H31.355H31.379H31.4029H31.4269H31.4508H31.4748H31.4987H31.5226H31.5465H31.5704H31.5943H31.6182H31.6421H31.6659H31.6897H31.7136H31.7374H31.7612H31.785H31.8087H31.8325H31.8562H31.8799H31.9036H31.9273H31.951H31.9746H31.9983H32.0219H32.0455H32.069H32.0926H32.1161H32.1397H32.1631H32.1866H32.2101H32.2335H32.2569H32.2803H32.3037H32.327H32.3503H32.3736H32.3969H32.4201H32.4434H32.4666H32.4897H32.5129H32.536H32.5591H32.5821H32.6052H32.6282H32.6512H32.6741H32.697H32.7199H32.7428H32.7656H32.7884H32.8112H32.8339H32.8566H32.8793H32.9019H32.9245H32.9471H32.9697H32.9922H33.0146H33.0371H33.0595H33.0818H33.1042H33.1265H33.1487H33.1709H33.1931H33.2153H33.2374H33.2594H33.2815H33.3035H33.3254H33.3473H33.3692H33.391H33.4128H33.4345H33.4562H33.4779H33.4995H33.5211H33.5426H33.5641H33.5856H33.6069H33.6283H33.6496H33.6709H33.6921H33.7133H33.7344H33.7555H33.7765H33.7975H33.8184H33.8393H33.8601H33.8809H33.9016H33.9223H33.9429H33.9635H33.984H34.0045H34.025H34.0453H34.0656H34.0859H34.1061H34.1263H34.1464H34.1664H34.1864H34.2064H34.2263H34.2461H34.2659H34.2856H34.3052H34.3248H34.3444H34.3638H34.3833H34.4026H34.4219H34.4412H34.4604H34.4795H34.4985H34.5175H34.5365H34.5553H34.5742H34.5929H34.6116H34.6302H34.6488H34.6673H34.6857H34.704H34.7223H34.7406H34.7587H34.7768H34.7949H34.8128H34.8307H34.8485H34.8663H34.884H34.9016H34.9192H34.9366H34.954H34.9714H34.9886C35.5409 37.3125 35.9886 37.7602 35.9886 38.3125C35.9886 38.8648 35.5409 39.3125 34.9886 39.3125H34.9714H34.954H34.9366H34.9192H34.9016H34.884H34.8663H34.8485H34.8307H34.8128H34.7949H34.7768H34.7587H34.7406H34.7223H34.704H34.6857H34.6673H34.6488H34.6302H34.6116H34.5929H34.5742H34.5553H34.5365H34.5175H34.4985H34.4795H34.4604H34.4412H34.4219H34.4026H34.3833H34.3638H34.3444H34.3248H34.3052H34.2856H34.2659H34.2461H34.2263H34.2064H34.1864H34.1664H34.1464H34.1263H34.1061H34.0859H34.0656H34.0453H34.025H34.0045H33.984H33.9635H33.9429H33.9223H33.9016H33.8809H33.8601H33.8393H33.8184H33.7975H33.7765H33.7555H33.7344H33.7133H33.6921H33.6709H33.6496H33.6283H33.6069H33.5856H33.5641H33.5426H33.5211H33.4995H33.4779H33.4562H33.4345H33.4128H33.391H33.3692H33.3473H33.3254H33.3035H33.2815H33.2594H33.2374H33.2153H33.1931H33.1709H33.1487H33.1265H33.1042H33.0818H33.0595H33.0371H33.0146H32.9922H32.9697H32.9471H32.9245H32.9019H32.8793H32.8566H32.8339H32.8112H32.7884H32.7656H32.7428H32.7199H32.697H32.6741H32.6512H32.6282H32.6052H32.5821H32.5591H32.536H32.5129H32.4897H32.4666H32.4434H32.4201H32.3969H32.3736H32.3503H32.327H32.3037H32.2803H32.2569H32.2335H32.2101H32.1866H32.1631H32.1397H32.1161H32.0926H32.069H32.0455H32.0219H31.9983H31.9746H31.951H31.9273H31.9036H31.8799H31.8562H31.8325H31.8087H31.785H31.7612H31.7374H31.7136H31.6897H31.6659H31.6421H31.6182H31.5943H31.5704H31.5465H31.5226H31.4987H31.4748H31.4508H31.4269H31.4029H31.379H31.355H31.331H31.307H31.283H31.259H31.235H31.211H31.187H31.1629H31.1389H31.1149H31.0908H31.0668H31.0427H31.0187H30.9946H30.9706H30.9465H30.9224H30.8984H30.8743H30.8502H30.8262H30.8021H30.778H30.754H30.7299H30.7058H30.6818H30.6577H30.6337H30.6096H30.5856H30.5615H30.5375H30.5135H30.4894H30.4654H30.4414H30.4174H30.3934H30.3694H30.3454H30.3214H30.2974H30.2734H30.2495H30.2255H30.2016H30.1777H30.1538H30.1298H30.1059H30.0821H30.0582H30.0343H30.0105H29.9866H29.9628H29.939H29.9152H29.8914H29.8677H29.8439H29.8202H29.7965H29.7728H29.7491H29.7254H29.7018H29.6781H29.6545H29.6309H29.6073H29.5838H29.5602H29.5367H29.5132H29.4898H29.4663H29.4429H29.4195H29.3961H29.3727H29.3494H29.326H29.3027H29.2795H29.2562H29.233H29.2098H29.1866H29.1635H29.1404H29.1173H29.0942H29.0712H29.0482H29.0252H29.0023H28.9793H28.9564H28.9336H28.9108H28.888H28.8652H28.8424H28.8197H28.7971H28.7744H28.7518H28.7292H28.7067H28.6842H28.6617H28.6393H28.6169H28.5945H28.5722H28.5499H28.5276H28.5054H28.4832H28.4611H28.439H28.4169H28.3949H28.3729H28.3509H28.329H28.3072H28.2853H28.2635H28.2418H28.2201H28.1984H28.1768H28.1552H28.1337H28.1122H28.0908H28.0694H28.048H28.0267H28.0055H27.9842H27.9631H27.9419H27.9209H27.8998H27.8789H27.8579H27.837H27.8162H27.7954H27.7747H27.754H27.7334H27.7128H27.6923H27.6718H27.6514H27.631H27.6107H27.5904H27.5702H27.55H27.5299H27.5099H27.4899H27.4699H27.45H27.4302H27.4104H27.3907H27.3711H27.3515H27.3319H27.3124H27.293H27.2737H27.2544H27.2351H27.2159H27.1968H27.1777H27.1587H27.1398H27.1209H27.1021H27.0834H27.0647H27.0461H27.0275H27.009H26.9906H26.9722H26.9539H26.9357H26.9175H26.8994H26.8814H26.8634H26.8455H26.8277H26.8099H26.7923H26.7746H26.7571H26.7396H26.7222H26.7049H26.6876H26.6704H26.6533H26.6362H26.6193H26.6024H26.5855H26.5688H26.5521H26.5355H26.5189H26.5025H26.4861H26.4698H26.4536H26.4374H26.4214H26.4054H26.3894H26.3736H26.3578H26.3422H26.3266H26.3111H26.2956H26.2803H26.265H26.2498H26.2347H26.2196H26.2047H26.1898H26.175H26.1603H26.1457H26.1312H26.1167H26.1024H26.0881H26.0739H26.0598H26.0458H26.0319H26.018H26.0043H25.9906H25.9771H25.9636H25.9502H25.9369H25.9237H25.9105H25.8975H25.8846H25.8717H25.8589H25.8463H25.8337H25.8212H25.8088H25.7965H25.7843H25.7722H25.7602H25.7483H25.7365H25.7248H25.7132H25.7016H25.6902H25.6789H25.6676H25.6565H25.6455H25.6345H25.6237H25.613H25.6023H25.5918H25.5814H25.571H25.5608H25.5507H25.5406H25.5307H25.5209H25.5112H25.5016H25.4921H25.4827H25.4734H25.4642H25.4551H25.4461H25.4372H25.4285H25.4198H25.4113H25.4028H25.3945H25.3863H25.3781H25.3701H25.3622H25.3545H25.3468H25.3392H25.3318H25.3244H25.3172H25.3101H25.3031H25.2962H25.2895H25.2828H25.2763H25.2698H25.2635H25.2573H25.2512H25.2453H25.2394H25.2337H25.2281H25.2226H25.2172H25.212H25.2068H25.2018H25.1969H25.1922H25.1875C24.6352 39.3125 24.1875 38.8648 24.1875 38.3125ZM24.1875 47.6875C24.1875 47.1352 24.6352 46.6875 25.1875 46.6875H41.8295C42.9341 46.6875 43.8295 47.5829 43.8295 48.6875V50.5C43.8295 51.0523 43.3818 51.5 42.8295 51.5C42.2773 51.5 41.8295 51.0523 41.8295 50.5L41.8295 48.6875H25.1875C24.6352 48.6875 24.1875 48.2398 24.1875 47.6875ZM47.6875 49.5C48.2398 49.5 48.6875 49.9477 48.6875 50.5V59.8125C48.6875 60.9171 47.7921 61.8125 46.6875 61.8125H42.0625C41.5102 61.8125 41.0625 61.3648 41.0625 60.8125C41.0625 60.2602 41.5102 59.8125 42.0625 59.8125H46.6875V50.5C46.6875 49.9477 47.1352 49.5 47.6875 49.5ZM37.3125 55.25C37.3125 54.1454 38.2079 53.25 39.3125 53.25H42.8295C43.3818 53.25 43.8295 53.6977 43.8295 54.25C43.8295 54.8023 43.3818 55.25 42.8295 55.25H39.3125V60.8125C39.3125 61.3648 38.8648 61.8125 38.3125 61.8125C37.7602 61.8125 37.3125 61.3648 37.3125 60.8125V55.25ZM39.25 37.3125C38.6977 37.3125 38.25 37.7602 38.25 38.3125C38.25 38.8648 38.6977 39.3125 39.25 39.3125H43C43.5523 39.3125 44 38.8648 44 38.3125C44 37.7602 43.5523 37.3125 43 37.3125H39.25ZM51.4375 37.3125C50.8852 37.3125 50.4375 37.7602 50.4375 38.3125C50.4375 38.8648 50.8852 39.3125 51.4375 39.3125H60.8125C61.3648 39.3125 61.8125 38.8648 61.8125 38.3125C61.8125 37.7602 61.3648 37.3125 60.8125 37.3125H51.4375ZM46.9167 46.6875C46.3644 46.6875 45.9167 47.1352 45.9167 47.6875C45.9167 48.2398 46.3644 48.6875 46.9167 48.6875H60.8125C61.3648 48.6875 61.8125 48.2398 61.8125 47.6875C61.8125 47.1352 61.3648 46.6875 60.8125 46.6875H46.9167ZM16 43C16 41.8954 16.8954 41 18 41H68C69.1046 41 70 41.8954 70 43C70 44.1046 69.1046 45 68 45H18C16.8954 45 16 44.1046 16 43ZM29 28C28.4477 28 28 28.4477 28 29V30.75C28 31.3023 28.4477 31.75 29 31.75H30.75C31.3023 31.75 31.75 31.3023 31.75 30.75V29C31.75 28.4477 31.3023 28 30.75 28H29ZM54.25 29C54.25 28.4477 54.6977 28 55.25 28H57C57.5523 28 58 28.4477 58 29V30.75C58 31.3023 57.5523 31.75 57 31.75H55.25C54.6977 31.75 54.25 31.3023 54.25 30.75V29ZM29 54.25C28.4477 54.25 28 54.6977 28 55.25V57C28 57.5523 28.4477 58 29 58H30.75C31.3023 58 31.75 57.5523 31.75 57V55.25C31.75 54.6977 31.3023 54.25 30.75 54.25H29Z" fill="white"/>
</g>
</g>
<defs>
<radialGradient id="paint0_radial_1_26" cx="0" cy="0" r="1" gradientUnits="userSpaceOnUse" gradientTransform="rotate(45) scale(121.622)">
<stop stop-color="#4DB805"/>
<stop offset="1" stop-color="#0CA230"/>
</radialGradient>
<clipPath id="clip0_1_26">
<rect width="86" height="86" fill="white"/>
</clipPath>
<clipPath id="clip1_1_26">
<rect width="60" height="60" fill="white" transform="translate(13 13)"/>
</clipPath>
</defs>
</svg>
